<svg version="1.1" xmlns="http://www.w3.org/2000/svg" width="1024" height="1024" viewBox="0 0 1024 1024" fill="#fff"><path d="M1024 512c0 282.77-229.23 512-512 512s-512-229.23-512-512c0-282.77 229.23-512 512-512s512 229.23 512 512z"></path><path fill="currentColor" d="M581.888 478.528c-0.416 0.8-41.008 75.888-103.776 103.088l-0.032-0.016c-16.256 5.81-35.009 9.168-54.547 9.168-0.106 0-0.212 0-0.318 0h0.016c-44.736 0-86.72-17.392-118.256-48.928-65.296-65.36-65.296-171.536 0-236.704 30.144-30.35 71.898-49.136 118.040-49.136 0.115 0 0.23 0 0.346 0h-0.018c44.72 0 86.816 17.504 118.464 49.12 30.255 30.283 48.966 72.104 48.966 118.295 0 19.609-3.372 38.43-9.568 55.915l0.362-1.171 0.32 0.368zM753.76 666.64c19.856 24.096 18.832 60.8-2.368 83.568-9.971 10.91-24.247 17.741-40.119 17.792h-0.009c-14.635-0.065-27.902-5.864-37.682-15.265l0.018 0.017-161.6-153.84c51.568-29.392 86.336-85.76 97.92-106.608l11.184 13.568 10.144-10.896 30.88 33.152-12.016 12.896 103.648 125.616z"></path></svg>
