<svg width="92" height="92" viewBox="0 0 92 92" fill="none" xmlns="http://www.w3.org/2000/svg">
<circle cx="46" cy="46" r="46" fill="white" fill-opacity="0.07"/>
<circle cx="46.5542" cy="46.5542" r="37.6867" fill="white" fill-opacity="0.3"/>
<circle cx="46.6153" cy="46.6154" r="29.5383" fill="white"/>
<path fill-rule="evenodd" clip-rule="evenodd" d="M45.8582 37.1779C46.1521 34.8679 45.538 32.5827 44.1276 30.74C42.4804 28.5865 39.9876 27.3512 37.2887 27.3512C35.3653 27.3512 33.543 27.9805 32.0169 29.1706C30.1914 30.5928 29.0241 32.6482 28.7309 34.9575C28.437 37.2667 29.0511 39.5527 30.4615 41.3954C32.1087 43.5497 34.6007 44.7857 37.3003 44.7857C39.2238 44.7857 41.0453 44.1564 42.5707 42.9663C44.3969 41.5426 45.565 39.4872 45.8582 37.1779Z" fill="#52C852"/>
<path fill-rule="evenodd" clip-rule="evenodd" d="M63.0448 56.5261C62.9244 56.2722 62.8033 56.0183 62.6899 55.7636C62.5093 55.3594 62.0364 55.1802 61.636 55.3625C61.2348 55.5455 61.0573 56.0229 61.2386 56.4272C61.3575 56.6912 61.4824 56.9552 61.6082 57.22C62.5873 59.2855 63.1196 60.6228 61.7857 62.024C61.0434 62.7997 60.3699 63.1587 59.7534 63.1253C59.1146 63.0902 58.4071 62.619 57.6063 61.7031L59.4425 60.2716C59.6084 60.1423 59.647 59.9047 59.5297 59.7303L46.6351 40.2801C45.9553 41.8214 44.9045 43.1782 43.5451 44.239C42.1957 45.2912 40.6503 45.9719 39.0054 46.25L54.3774 63.7468C54.4561 63.8363 54.5649 63.8823 54.676 63.8823C54.7608 63.8823 54.8473 63.855 54.919 63.7982L56.3425 62.6891C57.1642 63.6502 58.2868 64.6557 59.667 64.732C59.7226 64.7344 59.7781 64.7359 59.8352 64.7359C60.8799 64.7359 61.9199 64.1993 62.9329 63.1385C65.1002 60.8627 63.9606 58.4576 63.0448 56.5261ZM47.0509 48.9853C46.902 49.1115 46.7207 49.1722 46.5409 49.1722C46.3133 49.1722 46.0865 49.0741 45.9291 48.8848L44.2363 46.8404C43.9555 46.5 43.9995 45.993 44.3374 45.7079C44.6761 45.4229 45.1768 45.4688 45.4592 45.8092L47.1512 47.8529C47.4328 48.194 47.3888 48.701 47.0509 48.9853Z" fill="#52C852"/>
</svg>
